<?xml version="1.0" encoding="UTF-8"?>
<svg id="Layer_1" data-name="Layer 1" xmlns="http://www.w3.org/2000/svg" viewBox="0 0 2000 341">
  <defs>
    <style>
      .cls-1 {
        fill: #fff;
      }
    </style>
  </defs>
  <path class="cls-1" d="m247.95,56.6c16.09,8.29,28.52,20.09,37.29,35.41,8.77,15.32,13.15,33.1,13.15,53.34s-4.39,37.92-13.15,53.05c-8.77,15.13-21.2,26.84-37.29,35.12-16.09,8.29-34.74,12.43-55.94,12.43h-70.54V44.17h70.54c21.2,0,39.84,4.15,55.94,12.43Zm-8.24,137.61c11.56-11.56,17.35-27.85,17.35-48.86s-5.78-37.44-17.35-49.29-27.95-17.78-49.14-17.78h-28.62v133.27h28.62c21.2,0,37.58-5.78,49.14-17.35Z"/>
  <path class="cls-1" d="m328.02,122.22c6.46-12.53,15.22-22.16,26.31-28.91,11.08-6.74,23.46-10.12,37.15-10.12,11.95,0,22.4,2.41,31.37,7.23,8.96,4.82,16.14,10.89,21.54,18.21v-22.84h40.76v160.15h-40.76v-23.42c-5.2,7.52-12.39,13.73-21.54,18.65-9.16,4.91-19.71,7.37-31.65,7.37-13.49,0-25.78-3.47-36.86-10.41-11.08-6.94-19.85-16.72-26.31-29.34-6.46-12.62-9.68-27.12-9.68-43.51s3.23-30.54,9.68-43.07Zm110.58,18.36c-3.86-7.03-9.06-12.43-15.61-16.19-6.55-3.76-13.59-5.64-21.1-5.64s-14.45,1.83-20.81,5.49c-6.36,3.66-11.52,9.01-15.47,16.04-3.95,7.04-5.93,15.37-5.93,25.01s1.97,18.07,5.93,25.29c3.95,7.23,9.15,12.77,15.61,16.62,6.45,3.86,13.34,5.78,20.67,5.78s14.55-1.88,21.1-5.64c6.55-3.76,11.75-9.15,15.61-16.19,3.85-7.03,5.78-15.47,5.78-25.29s-1.93-18.26-5.78-25.29Z"/>
  <path class="cls-1" d="m591.52,208.66l40.47-122.86h43.07l-59.26,160.15h-49.15l-58.97-160.15h43.36l40.47,122.86Z"/>
  <path class="cls-1" d="m700.65,59.92c-4.72-4.53-7.08-10.16-7.08-16.91s2.36-12.38,7.08-16.91c4.72-4.53,10.65-6.79,17.78-6.79s13.05,2.27,17.78,6.79c4.72,4.53,7.08,10.17,7.08,16.91s-2.36,12.39-7.08,16.91c-4.72,4.53-10.65,6.79-17.78,6.79s-13.06-2.26-17.78-6.79Zm37.73,25.87v160.15h-40.47V85.8h40.47Z"/>
  <path class="cls-1" d="m926,178.02h-117.08c.96,11.56,5.01,20.62,12.14,27.17,7.13,6.55,15.9,9.83,26.31,9.83,15.03,0,25.73-6.45,32.09-19.37h43.65c-4.63,15.42-13.49,28.09-26.6,38.01-13.11,9.93-29.2,14.89-48.28,14.89-15.42,0-29.25-3.42-41.48-10.26-12.24-6.84-21.78-16.52-28.62-29.05-6.84-12.53-10.26-26.98-10.26-43.36s3.37-31.12,10.12-43.65c6.74-12.53,16.19-22.16,28.33-28.91,12.14-6.74,26.11-10.12,41.92-10.12s28.86,3.28,40.91,9.83c12.04,6.55,21.39,15.86,28.04,27.9,6.65,12.05,9.97,25.87,9.97,41.48,0,5.78-.39,10.99-1.16,15.61Zm-40.76-27.17c-.19-10.41-3.95-18.74-11.27-25.01-7.33-6.26-16.29-9.39-26.88-9.39-10.02,0-18.46,3.04-25.3,9.11-6.84,6.07-11.03,14.5-12.58,25.3h76.03Z"/>
  <path class="cls-1" d="m982.66,241.47c-10.41-4.72-18.65-11.13-24.72-19.22s-9.4-17.06-9.97-26.88h40.76c.77,6.17,3.8,11.27,9.11,15.32,5.3,4.05,11.9,6.07,19.8,6.07s13.73-1.54,18.07-4.62c4.34-3.08,6.5-7.03,6.5-11.85,0-5.2-2.65-9.11-7.95-11.71-5.3-2.6-13.73-5.44-25.3-8.53-11.95-2.89-21.73-5.88-29.34-8.96-7.62-3.08-14.17-7.8-19.66-14.17-5.49-6.36-8.24-14.93-8.24-25.73,0-8.86,2.55-16.96,7.66-24.28,5.1-7.32,12.43-13.1,21.97-17.35,9.54-4.24,20.76-6.36,33.68-6.36,19.08,0,34.3,4.77,45.68,14.31,11.37,9.54,17.63,22.4,18.79,38.59h-38.74c-.58-6.36-3.23-11.42-7.95-15.18-4.72-3.76-11.03-5.64-18.93-5.64-7.33,0-12.96,1.35-16.91,4.05-3.95,2.7-5.93,6.46-5.93,11.27,0,5.4,2.7,9.49,8.09,12.29,5.39,2.8,13.78,5.64,25.15,8.53,11.56,2.89,21.1,5.88,28.62,8.96,7.52,3.09,14.02,7.86,19.51,14.31,5.49,6.46,8.33,14.99,8.53,25.58,0,9.25-2.56,17.54-7.66,24.86-5.11,7.33-12.43,13.06-21.97,17.2-9.54,4.14-20.67,6.21-33.39,6.21s-24.86-2.36-35.27-7.08Z"/>
  <path class="cls-1" d="m1320.31,44.17v32.67h-53.77v169.12h-40.47V76.84h-53.77v-32.67h148.01Z"/>
  <path class="cls-1" d="m1379.28,238.29c-12.34-6.84-22.02-16.52-29.05-29.05-7.04-12.53-10.55-26.98-10.55-43.36s3.61-30.83,10.84-43.36c7.23-12.53,17.1-22.21,29.63-29.05,12.53-6.84,26.5-10.26,41.92-10.26s29.39,3.42,41.92,10.26c12.53,6.84,22.4,16.53,29.63,29.05,7.23,12.53,10.84,26.98,10.84,43.36s-3.71,30.84-11.13,43.36c-7.42,12.53-17.44,22.21-30.06,29.05-12.62,6.84-26.74,10.26-42.35,10.26s-29.3-3.42-41.63-10.26Zm62.3-30.35c6.46-3.56,11.61-8.91,15.47-16.04,3.85-7.13,5.78-15.8,5.78-26.02,0-15.22-4-26.93-12-35.12-8-8.19-17.78-12.29-29.34-12.29s-21.25,4.1-29.05,12.29c-7.81,8.19-11.71,19.9-11.71,35.12s3.8,26.93,11.42,35.12c7.61,8.19,17.2,12.29,28.76,12.29,7.32,0,14.21-1.78,20.67-5.35Z"/>
  <path class="cls-1" d="m1669.23,101.55c11.75,12.05,17.63,28.86,17.63,50.45v93.95h-40.47v-88.46c0-12.72-3.18-22.5-9.54-29.34-6.36-6.84-15.03-10.26-26.02-10.26s-20,3.42-26.45,10.26c-6.46,6.84-9.68,16.62-9.68,29.34v88.46h-40.47V85.8h40.47v19.95c5.39-6.94,12.29-12.38,20.67-16.33,8.38-3.95,17.58-5.93,27.61-5.93,19.08,0,34.5,6.03,46.25,18.07Z"/>
  <path class="cls-1" d="m1878.53,85.8l-99.16,235.9h-43.07l34.69-79.79-64.18-156.11h45.39l41.34,111.88,41.92-111.88h43.07Z"/>
</svg>