<?xml version="1.0" encoding="utf-8"?>
<!-- Generator: Adobe Illustrator 27.3.1, SVG Export Plug-In . SVG Version: 6.00 Build 0)  -->
<svg version="1.1" id="Layer_1" xmlns="http://www.w3.org/2000/svg" xmlns:xlink="http://www.w3.org/1999/xlink" x="0px" y="0px"
	 viewBox="0 0 57.1 26" enable-background="new 0 0 57.1 26" xml:space="preserve">
<g>
	<path fill="#FFFFFF" d="M11.7,1.8c0.8,0.4,1.4,1,1.8,1.7C13.9,4.2,14.1,5,14.1,6s-0.2,1.8-0.6,2.5c-0.4,0.7-1,1.3-1.8,1.7
		c-0.8,0.4-1.7,0.6-2.7,0.6H5.7V1.2h3.4C10.1,1.2,11,1.4,11.7,1.8z M11.4,8.3C11.9,7.8,12.2,7,12.2,6c0-1-0.3-1.8-0.8-2.3
		S10,2.8,9,2.8H7.7v6.3H9C10,9.1,10.8,8.9,11.4,8.3z"/>
	<path fill="#FFFFFF" d="M15.6,4.9c0.3-0.6,0.7-1.1,1.3-1.4C17.3,3.2,17.9,3,18.6,3c0.6,0,1.1,0.1,1.5,0.3c0.4,0.2,0.8,0.5,1,0.9
		V3.2H23v7.6h-1.9V9.7c-0.2,0.4-0.6,0.7-1,0.9c-0.4,0.2-0.9,0.4-1.5,0.4c-0.6,0-1.2-0.2-1.8-0.5c-0.5-0.3-0.9-0.8-1.3-1.4
		c-0.3-0.6-0.5-1.3-0.5-2.1C15.1,6.2,15.2,5.5,15.6,4.9z M20.8,5.8c-0.2-0.3-0.4-0.6-0.7-0.8c-0.3-0.2-0.6-0.3-1-0.3
		c-0.4,0-0.7,0.1-1,0.3c-0.3,0.2-0.5,0.4-0.7,0.8c-0.2,0.3-0.3,0.7-0.3,1.2c0,0.5,0.1,0.9,0.3,1.2c0.2,0.3,0.4,0.6,0.7,0.8
		c0.3,0.2,0.6,0.3,1,0.3c0.4,0,0.7-0.1,1-0.3c0.3-0.2,0.6-0.4,0.7-0.8C21,7.8,21.1,7.4,21.1,7C21.1,6.5,21,6.1,20.8,5.8z"/>
	<path fill="#FFFFFF" d="M28.1,9L30,3.2h2l-2.8,7.6h-2.3l-2.8-7.6h2.1L28.1,9z"/>
	<path fill="#FFFFFF" d="M33.3,1.9c-0.2-0.2-0.3-0.5-0.3-0.8c0-0.3,0.1-0.6,0.3-0.8C33.5,0.1,33.8,0,34.1,0c0.3,0,0.6,0.1,0.8,0.3
		c0.2,0.2,0.3,0.5,0.3,0.8c0,0.3-0.1,0.6-0.3,0.8c-0.2,0.2-0.5,0.3-0.8,0.3C33.8,2.3,33.5,2.1,33.3,1.9z M35.1,3.2v7.6h-1.9V3.2
		H35.1z"/>
	<path fill="#FFFFFF" d="M44,7.6h-5.6c0,0.6,0.2,1,0.6,1.3c0.3,0.3,0.8,0.5,1.3,0.5c0.7,0,1.2-0.3,1.5-0.9h2.1
		c-0.2,0.7-0.6,1.3-1.3,1.8c-0.6,0.5-1.4,0.7-2.3,0.7c-0.7,0-1.4-0.2-2-0.5c-0.6-0.3-1-0.8-1.4-1.4c-0.3-0.6-0.5-1.3-0.5-2.1
		c0-0.8,0.2-1.5,0.5-2.1c0.3-0.6,0.8-1.1,1.3-1.4c0.6-0.3,1.2-0.5,2-0.5c0.7,0,1.4,0.2,1.9,0.5c0.6,0.3,1,0.8,1.3,1.3
		c0.3,0.6,0.5,1.2,0.5,2C44.1,7.1,44,7.3,44,7.6z M42.1,6.3c0-0.5-0.2-0.9-0.5-1.2c-0.3-0.3-0.8-0.4-1.3-0.4c-0.5,0-0.9,0.1-1.2,0.4
		c-0.3,0.3-0.5,0.7-0.6,1.2H42.1z"/>
	<path fill="#FFFFFF" d="M46.7,10.6c-0.5-0.2-0.9-0.5-1.2-0.9S45.1,8.8,45,8.4H47c0,0.3,0.2,0.5,0.4,0.7c0.3,0.2,0.6,0.3,0.9,0.3
		c0.4,0,0.7-0.1,0.9-0.2c0.2-0.1,0.3-0.3,0.3-0.6c0-0.2-0.1-0.4-0.4-0.6c-0.3-0.1-0.7-0.3-1.2-0.4c-0.6-0.1-1-0.3-1.4-0.4
		c-0.4-0.1-0.7-0.4-0.9-0.7c-0.3-0.3-0.4-0.7-0.4-1.2c0-0.4,0.1-0.8,0.4-1.2c0.2-0.3,0.6-0.6,1-0.8c0.5-0.2,1-0.3,1.6-0.3
		c0.9,0,1.6,0.2,2.2,0.7c0.5,0.5,0.8,1.1,0.9,1.8h-1.8c0-0.3-0.2-0.5-0.4-0.7c-0.2-0.2-0.5-0.3-0.9-0.3c-0.3,0-0.6,0.1-0.8,0.2
		c-0.2,0.1-0.3,0.3-0.3,0.5c0,0.3,0.1,0.5,0.4,0.6c0.3,0.1,0.7,0.3,1.2,0.4c0.6,0.1,1,0.3,1.4,0.4c0.4,0.1,0.7,0.4,0.9,0.7
		c0.3,0.3,0.4,0.7,0.4,1.2c0,0.4-0.1,0.8-0.4,1.2c-0.2,0.3-0.6,0.6-1,0.8c-0.5,0.2-1,0.3-1.6,0.3C47.8,10.9,47.2,10.8,46.7,10.6z"/>
	<path fill="#FFFFFF" d="M12.8,12.8v1.6h-2.6v8H8.3v-8H5.7v-1.6H12.8z"/>
	<path fill="#FFFFFF" d="M15.6,22c-0.6-0.3-1-0.8-1.4-1.4c-0.3-0.6-0.5-1.3-0.5-2.1c0-0.8,0.2-1.5,0.5-2.1c0.3-0.6,0.8-1.1,1.4-1.4
		c0.6-0.3,1.3-0.5,2-0.5c0.7,0,1.4,0.2,2,0.5c0.6,0.3,1.1,0.8,1.4,1.4c0.3,0.6,0.5,1.3,0.5,2.1c0,0.8-0.2,1.5-0.5,2.1
		c-0.4,0.6-0.8,1.1-1.4,1.4c-0.6,0.3-1.3,0.5-2,0.5C16.8,22.5,16.2,22.4,15.6,22z M18.5,20.6c0.3-0.2,0.6-0.4,0.7-0.8
		c0.2-0.3,0.3-0.8,0.3-1.2c0-0.7-0.2-1.3-0.6-1.7c-0.4-0.4-0.8-0.6-1.4-0.6c-0.6,0-1,0.2-1.4,0.6c-0.4,0.4-0.6,0.9-0.6,1.7
		c0,0.7,0.2,1.3,0.5,1.7c0.4,0.4,0.8,0.6,1.4,0.6C17.9,20.8,18.2,20.8,18.5,20.6z"/>
	<path fill="#FFFFFF" d="M29.4,15.5c0.6,0.6,0.8,1.4,0.8,2.4v4.5h-1.9v-4.2c0-0.6-0.2-1.1-0.5-1.4c-0.3-0.3-0.7-0.5-1.2-0.5
		c-0.5,0-1,0.2-1.3,0.5c-0.3,0.3-0.5,0.8-0.5,1.4v4.2h-1.9v-7.6h1.9v0.9c0.3-0.3,0.6-0.6,1-0.8c0.4-0.2,0.8-0.3,1.3-0.3
		C28.1,14.7,28.8,15,29.4,15.5z"/>
	<path fill="#FFFFFF" d="M39.3,14.8L34.6,26h-2l1.7-3.8l-3.1-7.4h2.2l2,5.3l2-5.3H39.3z"/>
</g>
</svg>
